# xmcd
#
# Track frame offsets:
#	150
#	9006
#	13419
#	21745
#	38568
#	54012
#	68920
#	81814
#	94073
#	106504
#	118477
#	134347
#	153542
#
# Disc length: 2207 seconds
#
# Revision: 0
# Processed by: cddbd v1.4PL0 Copyright (c) Steve Scherf et al.
# Submitted via: audiograbber 1.80
#
DISCID=9f089d0d
DTITLE=Grupo Laser - Ao Vivo
DYEAR=1900
DGENRE=
TTITLE0=Volte Logo
TTITLE1=Solidao de Caminhoneiro
TTITLE2=Pra comer Baton
TTITLE3=Sexo Enlouquecedor
TTITLE4=Grande Amor da Minha Vida
TTITLE5=Lenha
TTITLE6=Queima Queima
TTITLE7=A Fogueirinha
TTITLE8=Fala Coracao
TTITLE9=Quando o Coracao se Apaixona
TTITLE10=A Lenda
TTITLE11=Paladar
TTITLE12=Amor
EXTD=1º CD do grupo LASER de Varzea Nova, Tel- 75 659 2256
EXTT0=
EXTT1=
EXTT2=
EXTT3=
EXTT4=
EXTT5=
EXTT6=
EXTT7=
EXTT8=
EXTT9=
EXTT10=
EXTT11=
EXTT12=
PLAYORDER=
